frame=    0 fps=0.0 q=0.0 size=       0kB time=00:00:00.41 bitrate=   0.0kbits/s speed=0.83x    frame=    0 fps=0.0 q=0.0 size=       0kB time=00:00:00.89 bitrate=   0.0kbits/s speed=0.895x    frame=   29 fps= 19 q=15.8 size=     124kB time=00:00:01.42 bitrate= 713.1kbits/s speed=0.945x    frame=   29 fps= 14 q=15.8 size=     124kB time=00:00:01.92 bitrate= 526.6kbits/s speed=0.957x    frame=   60 fps= 24 q=16.1 size=     170kB time=00:00:02.40 bitrate= 578.0kbits/s speed=0.958x    frame=   60 fps= 20 q=16.1 size=     170kB time=00:00:02.93 bitrate= 474.0kbits/s speed=0.972x    frame=   91 fps= 26 q=19.0 size=     224kB time=00:00:03.43 bitrate= 534.4kbits/s speed=0.975x    frame=   91 fps= 23 q=19.0 size=     224kB time=00:00:03.94 bitrate= 466.1kbits/s speed=0.978x    frame=  122 fps= 27 q=17.5 size=     276kB time=00:00:04.44 bitrate= 508.2kbits/s speed=0.979x    frame=  122 fps= 24 q=17.5 size=     276kB time=00:00:04.95 bitrate= 456.4kbits/s speed=0.981x    frame=  153 fps= 28 q=19.8 size=     313kB time=00:00:05.47 bitrate= 467.3kbits/s speed=0.986x    frame=  154 fps= 25 q=19.5 size=     313kB time=00:00:05.95 bitrate= 430.5kbits/s speed=0.983x    frame=  183 fps= 28 q=22.6 size=     358kB time=00:00:06.46 bitrate= 453.7kbits/s speed=0.983x    frame=  184 fps= 26 q=23.4 size=     358kB time=00:00:06.96 bitrate= 421.5kbits/s speed=0.985x    frame=  214 fps= 28 q=24.6 size=     392kB time=00:00:07.49 bitrate= 428.2kbits/s speed=0.988x    frame=  216 fps= 27 q=24.9 size=     393kB time=00:00:07.97 bitrate= 403.4kbits/s speed=0.986x    frame=  245 fps= 28 q=24.9 size=     434kB time=00:00:08.50 bitrate= 418.5kbits/s speed=0.989x    frame=  248 fps= 27 q=24.6 size=     436kB time=00:00:08.95 bitrate= 398.2kbits/s speed=0.984x    frame=  275 fps= 29 q=27.7 size=     467kB time=00:00:09.51 bitrate= 402.0kbits/s speed=0.99x    frame=  278 fps= 27 q=31.0 size=     477kB time=00:00:09.96 bitrate= 391.9kbits/s speed=0.986x    frame=  306 fps= 29 q=25.2 size=     507kB time=00:00:10.51 bitrate= 394.5kbits/s speed=0.991x    frame=  310 fps= 28 q=27.2 size=     508kB time=00:00:10.97 bitrate= 379.2kbits/s speed=0.987x    frame=  337 fps= 29 q=24.8 size=     546kB time=00:00:11.52 bitrate= 388.0kbits/s speed=0.992x    frame=  345 fps= 28 q=28.1 size=     549kB time=00:00:11.98 bitrate= 375.2kbits/s speed=0.988x    frame=  368 fps= 29 q=23.2 size=     574kB time=00:00:12.55 bitrate= 374.7kbits/s speed=0.994x    frame=  382 fps= 29 q=24.0 size=     589kB time=00:00:12.96 bitrate= 372.0kbits/s speed=0.987x    frame=  399 fps= 29 q=31.0 size=     614kB time=00:00:13.54 bitrate= 371.3kbits/s speed=0.992x    frame=  407 fps= 29 q=31.0 size=     617kB time=00:00:13.97 bitrate= 361.8kbits/s speed=0.987x    frame=  430 fps= 29 q=30.7 size=     643kB time=00:00:14.55 bitrate= 362.3kbits/s speed=0.993x    frame=  437 fps= 29 q=26.2 size=     655kB time=00:00:14.98 bitrate= 357.9kbits/s speed=0.989x    frame=  461 fps= 29 q=31.0 size=     681kB time=00:00:15.55 bitrate= 358.6kbits/s speed=0.994x    frame=  472 fps= 29 q=31.0 size=     693kB time=00:00:15.99 bitrate= 355.2kbits/s speed=0.99x    frame=  492 fps= 30 q=29.4 size=     708kB time=00:00:16.59 bitrate= 349.5kbits/s speed=0.995x    frame=  509 fps= 30 q=27.2 size=     731kB time=00:00:17.00 bitrate= 352.2kbits/s speed=0.99x    frame=  523 fps= 30 q=25.5 size=     744kB time=00:00:17.52 bitrate= 347.8kbits/s speed=0.992x    frame=  532 fps= 29 q=30.1 size=     756kB time=00:00:17.98 bitrate= 344.3kbits/s speed=0.99x    frame=  554 fps= 30 q=31.0 size=     780kB time=00:00:18.50 bitrate= 345.4kbits/s speed=0.991x    frame=  570 fps= 30 q=31.0 size=     793kB time=00:00:19.03 bitrate= 341.5kbits/s speed=0.993x    frame=  585 fps= 30 q=28.7 size=     806kB time=00:00:19.53 bitrate= 338.0kbits/s speed=0.993x    frame=  598 fps= 30 q=30.5 size=     818kB time=00:00:19.99 bitrate= 335.0kbits/s speed=0.991x    frame=  615 fps= 30 q=31.0 size=     842kB time=00:00:20.53 bitrate= 335.8kbits/s speed=0.993x    frame=  630 fps= 30 q=31.0 size=     855kB time=00:00:21.03 bitrate= 333.1kbits/s speed=0.993x    frame=  645 fps= 30 q=31.0 size=     868kB time=00:00:21.53 bitrate= 330.3kbits/s speed=0.993x    frame=  660 fps= 30 q=31.0 size=     882kB time=00:00:22.03 bitrate= 327.9kbits/s speed=0.993x    frame=  676 fps= 30 q=31.0 size=     905kB time=00:00:22.56 bitrate= 328.6kbits/s speed=0.994x    frame=  691 fps= 30 q=31.0 size=     918kB time=00:00:23.06 bitrate= 325.9kbits/s speed=0.994x    frame=  706 fps= 30 q=31.0 size=     930kB time=00:00:23.56 bitrate= 323.3kbits/s speed=0.994x    frame=  721 fps= 30 q=24.8 size=     951kB time=00:00:24.06 bitrate= 323.6kbits/s speed=0.994x    frame=  736 fps= 30 q=31.0 size=     963kB time=00:00:24.56 bitrate= 321.0kbits/s speed=0.994x    frame=  751 fps= 30 q=31.0 size=     978kB time=00:00:25.06 bitrate= 319.4kbits/s speed=0.994x    frame=  767 fps= 30 q=31.0 size=     991kB time=00:00:25.60 bitrate= 317.1kbits/s speed=0.995x    frame=  782 fps= 30 q=31.0 size=    1013kB time=00:00:26.10 bitrate= 317.8kbits/s speed=0.995x    frame=  797 fps= 30 q=31.0 size=    1026kB time=00:00:26.60 bitrate= 316.1kbits/s speed=0.995x    frame=  812 fps= 30 q=31.0 size=    1040kB time=00:00:27.10 bitrate= 314.3kbits/s speed=0.995x    frame=  827 fps= 30 q=31.0 size=    1052kB time=00:00:27.60 bitrate= 312.2kbits/s speed=0.995x    frame=  842 fps= 30 q=31.0 size=    1073kB time=00:00:28.10 bitrate= 312.7kbits/s speed=0.995x    